<svg xmlns="http://www.w3.org/2000/svg" width="168" height="168" viewBox="0 0 168 168" fill="none">
  <g stroke="#1b6f70" stroke-width="1.4" stroke-linecap="round" stroke-linejoin="round" opacity=".30">
    <path d="M19 20h18l6 6v18l-6 6H19l-6-6V26z"/>
    <circle cx="28" cy="35" r="7"/>
    <path d="M103 18a13 13 0 0 0 15 17l18 18 8-8-18-18a13 13 0 0 0-17-15l8 8-7 7z"/>
    <path d="M66 73h21v10H66zM70 83v17M83 83v17M64 100h25"/>
    <path d="M125 86v8m0 22v8m-19-19h8m22 0h8"/>
    <circle cx="125" cy="105" r="14"/>
    <circle cx="125" cy="105" r="5"/>
    <path d="M19 126h28l8 8-8 8H19l-8-8zM23 134h20"/>
    <path d="M82 126a10 10 0 1 0 0 20 10 10 0 0 0 0-20Zm0-6v6m0 20v6m-16-16h6m20 0h6"/>
  </g>
</svg>
